<?xml version="1.0" encoding="UTF-8" standalone="no" ?>
<!DOCTYPE svg PUBLIC "-//W3C//DTD SVG 1.1//EN" "http://www.w3.org/Graphics/SVG/1.1/DTD/svg11.dtd">
<svg xmlns="http://www.w3.org/2000/svg" xmlns:xlink="http://www.w3.org/1999/xlink" version="1.1" width="1280" height="1024" viewBox="0 0 1280 1024" xml:space="preserve">
<desc>Created with Fabric.js 5.3.0</desc>
<defs>
</defs>
<g transform="matrix(1 0 0 1 640 512)" id="background-logo"  >
<rect style="stroke: none; stroke-width: 0; stroke-dasharray: none; stroke-linecap: butt; stroke-dashoffset: 0; stroke-linejoin: miter; stroke-miterlimit: 4; fill: rgb(255,255,255); fill-opacity: 0; fill-rule: nonzero; opacity: 1;"  paint-order="stroke"  x="-640" y="-512" rx="0" ry="0" width="1280" height="1024" />
</g>
<g transform="matrix(1.9211538461538462 0 0 1.9211538461538462 638.6311778846155 724.6188313376813)" id="text-logo"  >
<g style=""  paint-order="stroke"   >
		<g transform="matrix(1 0 0 1 0 0)" id="text-logo-path-0"  >
<path style="stroke: none; stroke-width: 0; stroke-dasharray: none; stroke-linecap: butt; stroke-dashoffset: 0; stroke-linejoin: miter; stroke-miterlimit: 4; fill: rgb(10,39,76); fill-rule: nonzero; opacity: 1;"  paint-order="stroke"  transform=" translate(-305.35, 17.075)" d="M 14.9 0.7 C 21.25 0.7 27.4 -2.85 27.4 -9.7 C 27.4 -16.45 22.1 -19.25 16.35 -21 C 14.8 -21.5 13.65 -21.95 12.9 -22.3 C 11.85 -22.8 11.1 -23.35 11.1 -24.6 C 11.1 -26.05 12.95 -26.6 14.1 -26.6 C 16.8 -26.6 18.15 -25.4 19.3 -23.05 L 26.4 -27.2 C 23.95 -32.25 19.7 -34.85 14.1 -34.85 C 8 -34.85 2.8 -30.9 2.8 -24.6 C 2.8 -18.15 7.4 -15.6 12.95 -13.95 C 14.7 -13.45 15.95 -13 16.8 -12.65 C 17.95 -12.2 19.1 -11.6 19.1 -10.2 C 19.1 -8.35 16.6 -7.45 15.1 -7.45 C 11.85 -7.45 9.6 -8.7 8.35 -11.8 L 1.35 -7.7 C 3.6 -1.95 8.9 0.7 14.9 0.7 Z M 52.65 -34.2 L 52.65 -21.45 L 38.95 -21.45 L 38.95 -34.2 L 30.6 -34.2 L 30.6 0 L 38.95 0 L 38.95 -13.55 L 52.65 -13.55 L 52.65 0 L 60.95 0 L 60.95 -34.2 Z M 67.15 -34.2 L 67.15 0 L 75.5 0 L 75.5 -34.2 Z M 94.8 -34.2 L 81.75 -34.2 L 81.75 0 L 90.05 0 L 90.05 -11 L 94.8 -11 C 101.25 -11 106.45 -16.2 106.45 -22.6 C 106.45 -29 101.25 -34.2 94.8 -34.2 Z M 90.05 -18.9 L 90.05 -26.3 L 94.8 -26.3 C 96.95 -26.3 98.5 -24.75 98.5 -22.6 C 98.5 -20.5 96.9 -18.9 94.8 -18.9 Z M 145.2 -34.2 L 145.2 -21.45 L 131.5 -21.45 L 131.5 -34.2 L 123.15 -34.2 L 123.15 0 L 131.5 0 L 131.5 -13.55 L 145.2 -13.55 L 145.2 0 L 153.5 0 L 153.5 -34.2 Z M 168.05 -7.85 L 168.05 -13.55 L 179.95 -13.55 L 179.95 -21.4 L 168.05 -21.4 L 168.05 -26.3 L 181.15 -26.3 L 181.15 -34.2 L 159.7 -34.2 L 159.7 0 L 181.4 0 L 181.4 -7.85 Z M 208.6 0 L 217.5 0 L 204.95 -34.2 L 196.05 -34.2 L 183.55 0 L 192.45 0 L 194.65 -5.95 L 206.4 -5.95 Z M 197.5 -13.85 L 200.55 -22.1 L 203.5 -13.85 Z M 234.55 -34.2 L 227.2 -12.2 L 219.95 -34.2 L 211.2 -34.2 L 222.55 0 L 231.95 0 L 243.3 -34.2 Z M 253.8 -7.85 L 253.8 -13.55 L 265.7 -13.55 L 265.7 -21.4 L 253.8 -21.4 L 253.8 -26.3 L 266.9 -26.3 L 266.9 -34.2 L 245.45 -34.2 L 245.45 0 L 267.15 0 L 267.15 -7.85 Z M 291.25 -34.2 L 291.25 -16.8 L 280.15 -34.2 L 271.8 -34.2 L 271.8 0 L 280.15 0 L 280.15 -19.55 L 292.65 0 L 299.6 0 L 299.6 -34.2 Z M 330.05 0.7 C 336.4 0.7 342.55 -2.85 342.55 -9.7 C 342.55 -16.45 337.25 -19.25 331.5 -21 C 329.95 -21.5 328.8 -21.95 328.05 -22.3 C 327 -22.8 326.25 -23.35 326.25 -24.6 C 326.25 -26.05 328.1 -26.6 329.25 -26.6 C 331.95 -26.6 333.3 -25.4 334.45 -23.05 L 341.55 -27.2 C 339.1 -32.25 334.85 -34.85 329.25 -34.85 C 323.15 -34.85 317.95 -30.9 317.95 -24.6 C 317.95 -18.15 322.55 -15.6 328.1 -13.95 C 329.85 -13.45 331.1 -13 331.95 -12.65 C 333.1 -12.2 334.25 -11.6 334.25 -10.2 C 334.25 -8.35 331.75 -7.45 330.25 -7.45 C 327 -7.45 324.75 -8.7 323.5 -11.8 L 316.5 -7.7 C 318.75 -1.95 324.05 0.7 330.05 0.7 Z M 367.8 -34.2 L 367.8 -21.45 L 354.1 -21.45 L 354.1 -34.2 L 345.75 -34.2 L 345.75 0 L 354.1 0 L 354.1 -13.55 L 367.8 -13.55 L 367.8 0 L 376.1 0 L 376.1 -34.2 Z M 403.35 0 L 412.25 0 L 399.7 -34.2 L 390.8 -34.2 L 378.3 0 L 387.2 0 L 389.4 -5.95 L 401.15 -5.95 Z M 392.25 -13.85 L 395.3 -22.1 L 398.25 -13.85 Z M 426.75 -11 L 432.9 0 L 442.4 0 L 435.25 -12.9 C 438.55 -15.05 440.45 -18.7 440.45 -22.6 C 440.45 -29.05 435.3 -34.2 428.9 -34.2 L 414.4 -34.2 L 414.4 0 L 422.75 0 L 422.75 -11 Z M 422.75 -18.9 L 422.75 -26.3 L 428.9 -26.3 C 431 -26.3 432.6 -24.7 432.6 -22.6 C 432.6 -20.6 430.9 -18.9 428.9 -18.9 Z M 465.4 0 L 475.75 0 L 461.6 -18.65 L 474.1 -34.2 L 463.6 -34.2 L 453.15 -21.35 L 453.15 -34.2 L 444.8 -34.2 L 444.8 0 L 453.15 0 L 453.15 -8.05 L 456.25 -11.95 Z M 490.65 0.7 C 497 0.7 503.15 -2.85 503.15 -9.7 C 503.15 -16.45 497.85 -19.25 492.1 -21 C 490.55 -21.5 489.4 -21.95 488.65 -22.3 C 487.6 -22.8 486.85 -23.35 486.85 -24.6 C 486.85 -26.05 488.7 -26.6 489.85 -26.6 C 492.55 -26.6 493.9 -25.4 495.05 -23.05 L 502.15 -27.2 C 499.7 -32.25 495.45 -34.85 489.85 -34.85 C 483.75 -34.85 478.55 -30.9 478.55 -24.6 C 478.55 -18.15 483.15 -15.6 488.7 -13.95 C 490.45 -13.45 491.7 -13 492.55 -12.65 C 493.7 -12.2 494.85 -11.6 494.85 -10.2 C 494.85 -8.35 492.35 -7.45 490.85 -7.45 C 487.6 -7.45 485.35 -8.7 484.1 -11.8 L 477.1 -7.7 C 479.35 -1.95 484.65 0.7 490.65 0.7 Z M 528.2 -7.85 L 528.2 -34.2 L 519.85 -34.2 L 519.85 0 L 541.45 0 L 541.45 -7.85 Z M 563.75 -26.3 L 563.75 -34.2 L 538.2 -34.2 L 538.2 -26.3 L 546.85 -26.3 L 546.85 0 L 555.15 0 L 555.15 -26.3 Z M 582.05 -34.2 L 567.45 -34.2 L 567.45 0 L 582.05 0 C 591.8 0 599.6 -7.2 599.6 -16.95 C 599.6 -26.65 591.8 -34.2 582.05 -34.2 Z M 575.8 -7.85 L 575.8 -26.3 L 582.05 -26.3 C 587.2 -26.3 591.3 -22.15 591.3 -17.05 C 591.3 -11.9 587.1 -7.85 582.05 -7.85 Z M 601.2 -3.5 C 601.2 -0.85 602.65 0.65 605.3 0.65 C 607.95 0.65 609.35 -0.9 609.35 -3.5 C 609.35 -6.15 607.95 -7.6 605.3 -7.6 C 602.65 -7.6 601.2 -6.15 601.2 -3.5 Z" stroke-linecap="round" />
</g>
</g>
</g>
<g transform="matrix(1.9211538461538462 0 0 1.9211538461538462 638.0404230769232 825.6290894507822)" id="tagline-b3b37987-d467-45e7-8d71-82a7a104af10-logo"  >
<g style=""  paint-order="stroke"   >
		<g transform="matrix(1 0 0 1 0 0)" id="tagline-b3b37987-d467-45e7-8d71-82a7a104af10-logo-path-0"  >
<path style="stroke: none; stroke-width: 0; stroke-dasharray: none; stroke-linecap: butt; stroke-dashoffset: 0; stroke-linejoin: miter; stroke-miterlimit: 4; fill: rgb(10,39,76); fill-rule: nonzero; opacity: 1;"  paint-order="stroke"  transform=" translate(-287.4, 17.425)" d="M 21.7 -32.26 L 21.7 -35.52 L 3.65 -35.52 L 3.65 0 L 7.2 0 L 7.2 -16.22 L 21.12 -16.22 L 21.12 -19.49 L 7.2 -19.49 L 7.2 -32.26 Z M 52.27 0 L 52.27 -26.3 L 48.91 -26.3 L 48.91 -21.12 C 48.82 -21.41 46.32 -26.88 38.54 -26.88 C 30.58 -26.88 24.53 -20.54 24.53 -13.25 C 24.53 -8.64 26.74 -5.47 27.02 -5.09 C 31.06 -0.58 35.47 0.67 38.74 0.67 C 42.77 0.67 46.99 -1.25 48.91 -5.09 L 48.91 0 Z M 48.91 -13.06 C 48.91 -7.68 44.4 -2.78 38.74 -2.78 C 33.07 -2.78 28.08 -7.3 28.08 -12.96 C 28.08 -18.72 32.78 -23.42 38.64 -23.42 C 44.5 -23.42 48.91 -18.82 48.91 -13.06 Z M 73.2 -7.78 C 73.2 -10.37 72.05 -12.67 69.17 -14.11 C 67.34 -14.98 65.52 -15.46 63.6 -16.22 C 62.06 -16.8 61.2 -18.24 61.2 -19.78 C 61.2 -21.98 63.02 -23.42 64.94 -23.42 C 67.15 -23.42 68.98 -21.98 68.98 -19.78 L 72.53 -19.78 C 72.53 -23.62 69.17 -26.88 65.23 -26.88 C 61.01 -26.88 57.65 -23.62 57.65 -19.49 C 57.65 -16.7 59.18 -14.88 60.82 -13.73 C 62.06 -12.96 65.33 -12 66.1 -11.71 C 69.36 -10.56 69.65 -8.35 69.65 -7.2 C 69.65 -4.51 67.63 -2.78 65.04 -2.78 C 62.35 -2.78 60.24 -4.99 60.24 -7.78 L 56.69 -7.78 C 56.69 -7.68 56.59 -7.49 56.59 -7.39 C 56.59 -2.69 60.72 0.67 64.66 0.67 C 69.74 0.67 73.2 -2.98 73.2 -7.78 Z M 90.48 -23.04 L 90.48 -26.3 L 84.34 -26.3 L 84.34 -35.52 L 80.78 -35.52 L 80.78 -26.3 L 75.31 -26.3 L 75.31 -23.04 L 80.78 -23.04 L 80.78 0 L 84.34 0 L 84.34 -23.04 Z M 99.89 0 L 99.89 -6.05 L 96.34 -6.05 L 96.34 0 Z M 147.02 -24 C 147.02 -27.36 145.68 -30.05 143.86 -31.97 C 141.26 -34.56 137.71 -35.52 133.2 -35.52 L 122.93 -35.52 L 122.93 0 L 126.48 0 L 126.48 -32.26 L 133.68 -32.26 C 136.56 -32.26 139.34 -31.58 141.17 -29.76 C 142.51 -28.42 143.47 -26.5 143.47 -24 C 143.47 -21.6 142.13 -19.39 140.59 -18.14 C 138.67 -16.51 135.31 -16.13 133.68 -16.13 L 130.03 -16.13 L 142.13 0 L 146.54 0 L 136.56 -13.25 C 142.61 -13.44 147.02 -18.43 147.02 -24 Z M 178.13 -11.9 C 178.03 -15.65 177.36 -19.2 174.67 -22.18 C 172.08 -25.06 168.53 -26.88 164.5 -26.88 C 156.72 -26.88 150.77 -20.64 150.77 -13.06 C 150.77 -5.28 157.01 0.67 164.59 0.67 C 170.26 0.67 175.44 -3.26 177.36 -8.54 L 173.62 -8.54 C 172.18 -4.99 167.95 -2.78 164.3 -2.78 C 159.02 -2.78 154.42 -7.3 154.42 -11.9 Z M 174.58 -15.07 L 154.32 -15.07 C 155.28 -19.78 159.31 -23.42 164.5 -23.42 C 169.3 -23.42 173.71 -19.78 174.58 -15.07 Z M 187.06 0 L 187.06 -35.52 L 183.5 -35.52 L 183.5 0 Z M 197.14 -29.47 L 197.14 -35.52 L 193.58 -35.52 L 193.58 -29.47 Z M 197.14 0 L 197.14 -26.3 L 193.58 -26.3 L 193.58 0 Z M 230.35 0 L 230.35 -26.3 L 226.99 -26.3 L 226.99 -21.12 C 226.9 -21.41 224.4 -26.88 216.62 -26.88 C 208.66 -26.88 202.61 -20.54 202.61 -13.25 C 202.61 -8.64 204.82 -5.47 205.1 -5.09 C 209.14 -0.58 213.55 0.67 216.82 0.67 C 220.85 0.67 225.07 -1.25 226.99 -5.09 L 226.99 0 Z M 226.99 -13.06 C 226.99 -7.68 222.48 -2.78 216.82 -2.78 C 211.15 -2.78 206.16 -7.3 206.16 -12.96 C 206.16 -18.72 210.86 -23.42 216.72 -23.42 C 222.58 -23.42 226.99 -18.82 226.99 -13.06 Z M 264.62 -13.25 C 264.62 -20.93 258.19 -26.88 250.61 -26.88 C 244.27 -26.88 241.1 -23.04 240.53 -21.22 L 240.53 -35.52 L 236.98 -35.52 L 236.98 0 L 240.34 0 L 240.34 -4.7 C 241.97 -1.63 246.19 0.67 250.8 0.67 C 255.89 0.67 258.86 -1.34 262.03 -5.18 C 263.38 -6.72 264.62 -10.27 264.62 -13.25 Z M 261.07 -13.25 C 261.07 -7.3 256.37 -2.78 250.61 -2.78 C 245.14 -2.78 240.24 -6.91 240.24 -13.25 C 240.24 -19.49 245.33 -23.42 250.42 -23.42 C 256.46 -23.42 261.07 -19.01 261.07 -13.25 Z M 273.36 0 L 273.36 -35.52 L 269.81 -35.52 L 269.81 0 Z M 306.19 -11.9 C 306.1 -15.65 305.42 -19.2 302.74 -22.18 C 300.14 -25.06 296.59 -26.88 292.56 -26.88 C 284.78 -26.88 278.83 -20.64 278.83 -13.06 C 278.83 -5.28 285.07 0.67 292.66 0.67 C 298.32 0.67 303.5 -3.26 305.42 -8.54 L 301.68 -8.54 C 300.24 -4.99 296.02 -2.78 292.37 -2.78 C 287.09 -2.78 282.48 -7.3 282.48 -11.9 Z M 302.64 -15.07 L 282.38 -15.07 C 283.34 -19.78 287.38 -23.42 292.56 -23.42 C 297.36 -23.42 301.78 -19.78 302.64 -15.07 Z M 316.94 0 L 316.94 -6.05 L 313.39 -6.05 L 313.39 0 Z M 369.94 -17.86 C 369.94 -23.04 367.63 -27.17 364.75 -30.14 C 361.3 -33.79 355.73 -35.52 350.16 -35.52 L 339.98 -35.52 L 339.98 0 L 350.93 0 C 356.88 0 361.78 -2.02 364.66 -5.09 C 368.4 -9.02 369.94 -13.15 369.94 -17.86 Z M 366.38 -17.86 C 366.38 -12.96 364.37 -9.41 360.91 -6.53 C 357.74 -3.84 353.33 -3.26 349.3 -3.26 L 343.54 -3.26 L 343.54 -32.26 L 350.26 -32.26 C 355.34 -32.26 359.76 -30.72 362.83 -27.26 C 365.04 -24.86 366.38 -21.7 366.38 -17.86 Z M 401.81 -11.9 C 401.71 -15.65 401.04 -19.2 398.35 -22.18 C 395.76 -25.06 392.21 -26.88 388.18 -26.88 C 380.4 -26.88 374.45 -20.64 374.45 -13.06 C 374.45 -5.28 380.69 0.67 388.27 0.67 C 393.94 0.67 399.12 -3.26 401.04 -8.54 L 397.3 -8.54 C 395.86 -4.99 391.63 -2.78 387.98 -2.78 C 382.7 -2.78 378.1 -7.3 378.1 -11.9 Z M 398.26 -15.07 L 378 -15.07 C 378.96 -19.78 382.99 -23.42 388.18 -23.42 C 392.98 -23.42 397.39 -19.78 398.26 -15.07 Z M 410.74 0 L 410.74 -35.52 L 407.18 -35.52 L 407.18 0 Z M 420.82 -29.47 L 420.82 -35.52 L 417.26 -35.52 L 417.26 -29.47 Z M 420.82 0 L 420.82 -26.3 L 417.26 -26.3 L 417.26 0 Z M 450.48 -26.3 L 446.64 -26.3 L 437.62 -4.51 L 428.5 -26.3 L 424.66 -26.3 L 435.7 0 L 439.44 0 Z M 480.34 -11.9 C 480.24 -15.65 479.57 -19.2 476.88 -22.18 C 474.29 -25.06 470.74 -26.88 466.7 -26.88 C 458.93 -26.88 452.98 -20.64 452.98 -13.06 C 452.98 -5.28 459.22 0.67 466.8 0.67 C 472.46 0.67 477.65 -3.26 479.57 -8.54 L 475.82 -8.54 C 474.38 -4.99 470.16 -2.78 466.51 -2.78 C 461.23 -2.78 456.62 -7.3 456.62 -11.9 Z M 476.78 -15.07 L 456.53 -15.07 C 457.49 -19.78 461.52 -23.42 466.7 -23.42 C 471.5 -23.42 475.92 -19.78 476.78 -15.07 Z M 496.66 -23.33 L 496.66 -26.88 C 492.82 -26.88 490.32 -25.06 489.07 -22.46 L 489.07 -26.3 L 485.71 -26.3 L 485.71 0 L 489.26 0 L 489.26 -15.84 C 489.26 -20.16 492.62 -23.14 496.66 -23.33 Z M 527.09 -11.9 C 526.99 -15.65 526.32 -19.2 523.63 -22.18 C 521.04 -25.06 517.49 -26.88 513.46 -26.88 C 505.68 -26.88 499.73 -20.64 499.73 -13.06 C 499.73 -5.28 505.97 0.67 513.55 0.67 C 519.22 0.67 524.4 -3.26 526.32 -8.54 L 522.58 -8.54 C 521.14 -4.99 516.91 -2.78 513.26 -2.78 C 507.98 -2.78 503.38 -7.3 503.38 -11.9 Z M 523.54 -15.07 L 503.28 -15.07 C 504.24 -19.78 508.27 -23.42 513.46 -23.42 C 518.26 -23.42 522.67 -19.78 523.54 -15.07 Z M 559.25 0 L 559.25 -35.52 L 555.7 -35.52 L 555.7 -21.6 C 554.35 -24.19 550.61 -26.88 545.52 -26.88 C 537.74 -26.88 531.41 -20.83 531.41 -13.15 C 531.41 -5.09 538.51 0.67 545.42 0.67 C 550.7 0.67 553.49 -1.54 555.89 -4.9 L 555.89 0 Z M 555.79 -13.25 C 555.79 -7.58 551.09 -2.78 545.42 -2.78 C 539.57 -2.78 534.96 -7.58 534.96 -13.25 C 534.96 -18.82 539.66 -23.42 545.33 -23.42 C 551.09 -23.42 555.79 -19.01 555.79 -13.25 Z M 571.15 0 L 571.15 -6.05 L 567.6 -6.05 L 567.6 0 Z" stroke-linecap="round" />
</g>
</g>
</g>
<g transform="matrix(1.8836773371255293 0 0 1.8836773371255293 640 373.3524528080351)" id="logo-logo"  >
<g style=""  paint-order="stroke"   >
		<g transform="matrix(0.3383469270623278 0 0 -0.3383469270623278 54.84377333586127 47.11137875558882)"  >
<path style="stroke: none; stroke-width: 1; stroke-dasharray: none; stroke-linecap: butt; stroke-dashoffset: 0; stroke-linejoin: miter; stroke-miterlimit: 4; fill: rgb(0,204,255); fill-rule: evenodd; opacity: 1;"  paint-order="stroke"  transform=" translate(-492.0955, -260.76)" d="M 472.133 286.871 C 435.613 260.859 403.039 225.86299999999997 371.777 184.64499999999998 C 436.05899999999997 225.47299999999998 508.727 267.54699999999997 610.141 273.078 C 611.645 284.863 612.414 296.87899999999996 612.414 309.07399999999996 C 612.414 318.46099999999996 611.961 327.734 611.0699999999999 336.87499999999994 C 576.746 334.48799999999994 546.0509999999999 326.41399999999993 518.0039999999999 313.55899999999997 L 517.6209999999999 312.28499999999997 L 516.1799999999998 312.715 C 500.7459999999998 305.50399999999996 486.11699999999985 296.83599999999996 472.1329999999998 286.871" stroke-linecap="round" />
</g>
		<g transform="matrix(0.3383469270623278 0 0 -0.3383469270623278 -54.8459489066023 47.11137875558882)"  >
<path style="stroke: none; stroke-width: 1; stroke-dasharray: none; stroke-linecap: butt; stroke-dashoffset: 0; stroke-linejoin: miter; stroke-miterlimit: 4; fill: rgb(0,204,255); fill-rule: evenodd; opacity: 1;"  paint-order="stroke"  transform=" translate(-167.90245, -260.76)" d="M 288.219 184.645 C 256.961 225.863 224.387 260.85900000000004 187.863 286.871 C 173.879 296.83599999999996 159.254 305.5 143.82 312.715 L 142.379 312.28499999999997 L 142 313.55499999999995 C 113.953 326.40999999999997 83.2539 334.48799999999994 48.9297 336.87499999999994 C 48.0391 327.7339999999999 47.585899999999995 318.46099999999996 47.585899999999995 309.07399999999996 C 47.585899999999995 296.87899999999996 48.359399999999994 284.86299999999994 49.859399999999994 273.078 C 151.277 267.54699999999997 223.941 225.46899999999997 288.219 184.64499999999998" stroke-linecap="round" />
</g>
		<g transform="matrix(0.3383469270623278 0 0 -0.3383469270623278 -0.0006902277311837679 78.35568738823238)"  >
<path style="stroke: none; stroke-width: 1; stroke-dasharray: none; stroke-linecap: butt; stroke-dashoffset: 0; stroke-linejoin: miter; stroke-miterlimit: 4; fill: rgb(0,204,255); fill-rule: evenodd; opacity: 1;"  paint-order="stroke"  transform=" translate(-330.0001499999999, -168.416)" d="M 601.473 230.988 C 507.941 222.848 439.87499999999994 179.273 378.6329999999999 140.055 C 365.48799999999994 131.637 352.6289999999999 123.40200000000002 340.6599999999999 116.168 L 329.9999999999999 109.72300000000001 L 319.33999999999986 116.168 C 307.37099999999987 123.402 294.5119999999999 131.637 281.36699999999985 140.055 C 220.12099999999984 179.27300000000002 152.05899999999986 222.848 58.527299999999855 230.988 C 64.54689999999985 210.012 72.93359999999986 190.039 83.37889999999986 171.371 C 178.56599999999986 167.949 245.1249999999999 140.60500000000002 304.8009999999999 116.08600000000001 C 313.3359999999999 112.58200000000001 321.72999999999985 109.13300000000001 329.9999999999999 105.84400000000001 C 338.26999999999987 109.13300000000001 346.6599999999999 112.578 355.1949999999999 116.08600000000001 C 414.87099999999987 140.60500000000002 481.43399999999986 167.953 576.6209999999999 171.371 C 587.0659999999999 190.03900000000002 595.4529999999999 210.012 601.4729999999998 230.988" stroke-linecap="round" />
</g>
		<g transform="matrix(0.3383469270623278 0 0 -0.3383469270623278 -0.000740979770228023 109.19548535222671)"  >
<path style="stroke: none; stroke-width: 1; stroke-dasharray: none; stroke-linecap: butt; stroke-dashoffset: 0; stroke-linejoin: miter; stroke-miterlimit: 4; fill: rgb(0,204,255); fill-rule: evenodd; opacity: 1;"  paint-order="stroke"  transform=" translate(-330, -77.26755)" d="M 546.621 127.871 C 474.445 120.52 420.156 98.2148 370.867 77.9648 C 359.551 73.3125 348.477 68.7617 337.434 64.4766 L 330 61.5977 L 322.566 64.4766 C 311.52 68.7617 300.44899999999996 73.3164 289.12899999999996 77.96480000000001 C 239.83999999999997 98.21480000000001 185.55099999999996 120.51600000000002 113.37899999999996 127.86700000000002 C 118.74599999999997 121.45700000000002 124.39099999999996 115.28900000000002 130.30099999999996 109.37900000000002 C 181.406 58.2734 252.012 26.6641 330 26.6641 C 407.988 26.6641 478.594 58.2734 529.6990000000001 109.379 C 535.609 115.289 541.254 121.46100000000001 546.6210000000001 127.87100000000001" stroke-linecap="round" />
</g>
		<g transform="matrix(0.3383469270623278 0 0 -0.3383469270623278 -0.00006428591609619616 27.848780677539878)"  >
<path style="stroke: none; stroke-width: 1; stroke-dasharray: none; stroke-linecap: butt; stroke-dashoffset: 0; stroke-linejoin: miter; stroke-miterlimit: 4; fill: rgb(239,121,38); fill-rule: evenodd; opacity: 1;"  paint-order="stroke"  transform=" translate(-330.00199999999995, -317.6915)" d="M 329.996 204.113 C 371.78499999999997 261.09 420.688 315.21500000000003 483.59 349.09000000000003 L 486.688 359.398 L 330 431.27 L 173.316 359.398 L 176.41400000000002 349.086 C 239.305 315.223 288.223 261.07800000000003 329.996 204.113" stroke-linecap="round" />
</g>
		<g transform="matrix(0.3383469270623278 0 0 -0.3383469270623278 -0.000740979770228023 -16.62269354821484)"  >
<path style="stroke: none; stroke-width: 1; stroke-dasharray: none; stroke-linecap: butt; stroke-dashoffset: 0; stroke-linejoin: miter; stroke-miterlimit: 4; fill: rgb(87,193,52); fill-rule: evenodd; opacity: 1;"  paint-order="stroke"  transform=" translate(-330, -449.12899999999996)" d="M 330 476.852 L 338.563 472.92199999999997 L 498.65999999999997 399.48799999999994 L 504.445 418.75399999999996 L 330.004 498.77 L 155.555 418.75399999999996 L 161.344 399.48799999999994 L 321.44100000000003 472.9219999999999 L 330.00000000000006 476.8519999999999" stroke-linecap="round" />
</g>
		<g transform="matrix(0.3383469270623278 0 0 -0.3383469270623278 21.481751286734607 -38.82417303472718)"  >
<path style="stroke: none; stroke-width: 1; stroke-dasharray: none; stroke-linecap: butt; stroke-dashoffset: 0; stroke-linejoin: miter; stroke-miterlimit: 4; fill: rgb(87,193,52); fill-rule: evenodd; opacity: 1;"  paint-order="stroke"  transform=" translate(-393.49249999999995, -514.7465)" d="M 355.02 532.395 L 431.965 497.09799999999996 L 431.965 532.395 z" stroke-linecap="round" />
</g>
		<g transform="matrix(0.3383469270623278 0 0 -0.3383469270623278 -21.481879858566856 -38.82417303472718)"  >
<path style="stroke: none; stroke-width: 1; stroke-dasharray: none; stroke-linecap: butt; stroke-dashoffset: 0; stroke-linejoin: miter; stroke-miterlimit: 4; fill: rgb(87,193,52); fill-rule: evenodd; opacity: 1;"  paint-order="stroke"  transform=" translate(-266.5115, -514.7465)" d="M 228.035 497.098 L 304.988 532.395 L 228.035 532.395 z" stroke-linecap="round" />
</g>
		<g transform="matrix(0.3383469270623278 0 0 -0.3383469270623278 -0.000740979770228023 -62.51437900031374)"  >
<path style="stroke: none; stroke-width: 1; stroke-dasharray: none; stroke-linecap: butt; stroke-dashoffset: 0; stroke-linejoin: miter; stroke-miterlimit: 4; fill: rgb(87,193,52); fill-rule: evenodd; opacity: 1;"  paint-order="stroke"  transform=" translate(-330, -584.7640000000001)" d="M 228.035 572.844 L 431.96500000000003 572.844 L 431.96500000000003 596.6840000000001 L 228.03500000000003 596.6840000000001 L 228.03500000000003 572.844" stroke-linecap="round" />
</g>
		<g transform="matrix(0.3383469270623278 0 0 -0.3383469270623278 -0.000740979770228023 -87.33263362072609)"  >
<path style="stroke: none; stroke-width: 1; stroke-dasharray: none; stroke-linecap: butt; stroke-dashoffset: 0; stroke-linejoin: miter; stroke-miterlimit: 4; fill: rgb(87,193,52); fill-rule: evenodd; opacity: 1;"  paint-order="stroke"  transform=" translate(-330, -658.1155000000001)" d="M 273.629 632.383 L 386.37100000000004 632.383 L 386.37100000000004 683.8480000000001 L 273.629 683.8480000000001 L 273.629 632.383" stroke-linecap="round" />
</g>
		<g transform="matrix(0.3383469270623278 0 0 -0.3383469270623278 -0.0014176736243598498 -115.85088106202846)"  >
<path style="stroke: none; stroke-width: 1; stroke-dasharray: none; stroke-linecap: butt; stroke-dashoffset: 0; stroke-linejoin: miter; stroke-miterlimit: 4; fill: rgb(87,193,52); fill-rule: evenodd; opacity: 1;"  paint-order="stroke"  transform=" translate(-329.998, -742.4024999999999)" d="M 299.789 735.535 L 360.207 735.535 L 360.207 749.27 L 299.789 749.27 L 299.789 735.535" stroke-linecap="round" />
</g>
		<g transform="matrix(0.3383469270623278 0 0 -0.3383469270623278 0 0)"  >
<path style="stroke: none; stroke-width: 1; stroke-dasharray: none; stroke-linecap: butt; stroke-dashoffset: 0; stroke-linejoin: miter; stroke-miterlimit: 4; fill: rgb(10,39,76); fill-rule: nonzero; opacity: 1;"  paint-order="stroke"  transform=" translate(-330.00219, -399.99986000000007)" d="M 142.379 329.492 L 142 330.762 C 113.953 343.613 83.2539 351.691 48.9297 354.082 C 48.0391 344.941 47.585899999999995 335.668 47.585899999999995 326.281 C 47.585899999999995 314.086 48.359399999999994 302.07 49.859399999999994 290.281 C 151.277 284.754 223.941 242.67600000000002 288.219 201.848 C 256.961 243.06600000000003 224.387 278.063 187.863 304.07800000000003 C 173.879 314.03900000000004 159.254 322.70300000000003 143.82 329.922 z M 161.344 409.89500000000004 L 321.44100000000003 483.32800000000003 L 330.00000000000006 487.25800000000004 L 338.56300000000005 483.32800000000003 L 498.6600000000001 409.89500000000004 L 504.4450000000001 429.16 L 330.004 509.172 L 155.555 429.16 Z M 486.688 370.051 L 330 441.926 L 173.316 370.051 L 176.41400000000002 359.74199999999996 C 188.602 353.176 200.36700000000002 345.801 211.77700000000002 337.676 C 255.65200000000002 306.418 293.707 264.258 329.996 214.766 C 366.293 264.258 404.34799999999996 306.418 448.22299999999996 337.676 C 459.62899999999996 345.801 471.39799999999997 353.176 483.59 359.746 z M 258.434 742.398 L 258.434 797.488 L 401.563 797.488 L 401.563 742.398 L 407.04699999999997 742.398 L 427.727 742.398 L 427.727 721.7230000000001 L 427.727 649.5820000000001 L 452.645 649.5820000000001 L 473.32399999999996 649.5820000000001 L 473.32399999999996 628.9020000000002 L 473.32399999999996 584.3870000000002 L 473.32399999999996 488.7660000000002 L 537.9409999999999 459.12500000000017 L 554.3129999999999 451.6170000000002 L 549.1679999999999 434.4920000000002 L 533.0899999999999 380.9800000000002 C 555.2379999999999 388.19500000000016 578.7889999999999 392.9730000000002 604.0229999999999 395.0270000000002 C 601.8439999999999 403.7420000000002 599.2699999999999 412.2850000000002 596.305 420.6450000000002 C 585.457 451.2700000000002 569.512 479.4340000000002 549.496 504.0980000000002 L 581.48 530.1090000000002 C 604.504 501.73 622.82 469.422 635.234 434.375 C 647.238 400.5 653.77 364.109 653.77 326.281 C 653.77 236.879 617.527 155.934 558.934 97.3438 C 500.344 38.7539 419.402 2.51172 330 2.51172 C 240.598 2.51172 159.656 38.7539 101.066 97.3438 C 42.4727 155.934 6.23438 236.879 6.23438 326.281 C 6.23438 364.10900000000004 12.7656 400.5 24.7656 434.379 C 37.175799999999995 469.422 55.4961 501.73 78.5195 530.109 L 110.504 504.098 C 90.4883 479.434 74.5391 451.27 63.6953 420.648 C 60.730500000000006 412.28900000000004 58.152300000000004 403.742 55.976600000000005 395.02700000000004 C 81.2148 392.97300000000007 104.762 388.19500000000005 126.91000000000001 380.98 L 110.83200000000001 434.492 L 105.691 451.617 L 122.059 459.125 L 186.676 488.766 L 186.676 584.3870000000001 L 186.676 628.902 L 186.676 649.582 L 207.355 649.582 L 232.273 649.582 L 232.273 721.723 L 232.273 742.3979999999999 L 252.953 742.3979999999999 z M 360.207 742.398 L 360.207 756.133 L 299.789 756.133 L 299.789 742.398 Z M 228.035 584.387 L 431.96500000000003 584.387 L 431.96500000000003 608.223 L 228.03500000000003 608.223 z M 431.96500000000003 543.031 L 355.02 543.031 L 431.965 507.7339999999999 z M 304.98800000000006 543.031 L 228.03500000000005 543.031 L 228.03500000000005 507.7339999999999 z M 273.6290000000001 649.582 L 386.3710000000001 649.582 L 386.3710000000001 701.047 L 273.629 701.047 Z M 410.965 338 L 359 361.84 L 376.121 399.316 L 428.086 375.477 z M 231.91 375.477 L 283.871 399.316 L 301 361.84 L 249.035 338 Z M 83.3789 188.574 C 178.566 185.156 245.125 157.80900000000003 304.801 133.293 C 313.336 129.785 321.72999999999996 126.33600000000001 330 123.04700000000001 C 338.27 126.33600000000001 346.66 129.78500000000003 355.195 133.293 C 414.871 157.809 481.43399999999997 185.16 576.621 188.574 C 587.066 207.246 595.453 227.21900000000002 601.473 248.19500000000002 C 507.941 240.05100000000002 439.87499999999994 196.47700000000003 378.6329999999999 157.262 C 365.48799999999994 148.844 352.6289999999999 140.609 340.6599999999999 133.375 L 329.9999999999999 126.926 L 319.33999999999986 133.375 C 307.37099999999987 140.605 294.5119999999999 148.844 281.36699999999985 157.262 C 220.12099999999984 196.477 152.05899999999986 240.051 58.527299999999855 248.195 C 64.54689999999985 227.219 72.93359999999986 207.24599999999998 83.37889999999986 188.57399999999998 z M 546.621 145.074 C 474.445 137.723 420.156 115.422 370.867 95.168 C 359.551 90.5195 348.477 85.9688 337.434 81.6836 L 330 78.8008 L 322.566 81.6836 C 311.52 85.9688 300.44899999999996 90.5234 289.12899999999996 95.168 C 239.83999999999997 115.42200000000001 185.55099999999996 137.723 113.37899999999996 145.074 C 118.74599999999997 138.66000000000003 124.39099999999996 132.49200000000002 130.30099999999996 126.58200000000001 C 181.406 75.4766 252.012 43.8672 330 43.8672 C 407.988 43.8672 478.594 75.47659999999999 529.6990000000001 126.582 C 535.609 132.492 541.254 138.664 546.6210000000001 145.07399999999998 z M 611.0699999999999 354.082 C 576.746 351.695 546.0509999999999 343.617 518.0039999999999 330.766 L 517.6209999999999 329.492 L 516.1799999999998 329.922 C 500.7459999999998 322.70700000000005 486.11699999999985 314.043 472.1329999999998 304.07800000000003 C 435.61299999999983 278.06300000000005 403.0389999999998 243.06600000000003 371.7769999999998 201.848 C 436.0589999999998 242.67600000000002 508.7269999999998 284.754 610.1409999999998 290.281 C 611.6449999999999 302.07 612.4139999999999 314.086 612.4139999999999 326.281 C 612.4139999999999 335.668 611.9609999999999 344.94100000000003 611.0699999999998 354.082" stroke-linecap="round" />
</g>
		<g transform="matrix(0.3383469270623278 0 0 -0.3383469270623278 62.23073262094965 -107.14196644240633)"  >
<path style="stroke: none; stroke-width: 1; stroke-dasharray: none; stroke-linecap: butt; stroke-dashoffset: 0; stroke-linejoin: miter; stroke-miterlimit: 4; fill: rgb(10,39,76); fill-rule: evenodd; opacity: 1;"  paint-order="stroke"  transform=" translate(-513.9280000000001, -716.6628998350551)" d="M 479.043 710.035 C 486.434 707.98 493.117 703.5659999999999 498.66 697.461 L 513.9300000000001 680.645 L 529.195 697.461 C 534.738 703.566 541.422 707.98 548.8130000000001 710.035 C 555.7810000000001 711.98 563.6840000000001 711.949 572.2110000000001 709.434 L 583.8400000000001 749.012 C 567.5740000000002 753.809 552.0080000000002 753.7299999999999 537.8240000000002 749.7769999999999 C 529.2030000000002 747.371 521.1880000000002 743.5699999999999 513.9300000000002 738.602 C 506.6680000000002 743.5699999999999 498.6560000000002 747.371 490.0310000000002 749.7769999999999 C 475.8480000000002 753.7299999999999 460.2810000000002 753.809 444.0160000000002 749.012 L 455.6450000000002 709.434 C 464.1720000000002 711.949 472.0700000000002 711.98 479.04300000000023 710.035" stroke-linecap="round" />
</g>
		<g transform="matrix(0.3383469270623278 0 0 -0.3383469270623278 81.07496472368587 -64.70081265752094)"  >
<path style="stroke: none; stroke-width: 1; stroke-dasharray: none; stroke-linecap: butt; stroke-dashoffset: 0; stroke-linejoin: miter; stroke-miterlimit: 4; fill: rgb(10,39,76); fill-rule: evenodd; opacity: 1;"  paint-order="stroke"  transform=" translate(-569.6229999999999, -591.2261058515022)" d="M 545.727 624.34 C 531.543 628.293 515.977 628.375 499.71099999999996 623.5780000000001 L 511.34 584 C 519.867 586.516 527.766 586.547 534.7379999999999 584.602 C 542.1289999999999 582.543 548.813 578.1329999999999 554.3549999999999 572.0269999999999 L 569.6249999999999 555.2069999999999 L 584.887 572.0269999999999 C 590.434 578.1329999999999 597.117 582.5429999999999 604.5079999999999 584.602 C 611.477 586.547 619.3789999999999 586.516 627.906 584 L 639.535 623.578 C 623.27 628.375 607.703 628.293 593.52 624.3399999999999 C 584.898 621.9379999999999 576.879 618.1329999999999 569.625 613.1639999999999 C 562.363 618.1329999999999 554.352 621.9379999999999 545.727 624.3399999999999" stroke-linecap="round" />
</g>
		<g transform="matrix(0.3383469270623278 0 0 -0.3383469270623278 -62.23150405194326 -107.14196644240633)"  >
<path style="stroke: none; stroke-width: 1; stroke-dasharray: none; stroke-linecap: butt; stroke-dashoffset: 0; stroke-linejoin: miter; stroke-miterlimit: 4; fill: rgb(10,39,76); fill-rule: evenodd; opacity: 1;"  paint-order="stroke"  transform=" translate(-146.0741, -716.6628998350551)" d="M 161.34 697.461 C 166.887 703.566 173.566 707.98 180.957 710.035 C 187.934 711.98 195.832 711.949 204.355 709.434 L 215.988 749.012 C 199.719 753.809 184.156 753.7299999999999 169.973 749.7769999999999 C 161.348 747.371 153.33200000000002 743.5699999999999 146.074 738.602 C 138.816 743.5699999999999 130.80100000000002 747.371 122.17600000000002 749.7769999999999 C 107.99200000000002 753.7299999999999 92.42970000000001 753.809 76.16020000000002 749.012 L 87.78910000000002 709.434 C 96.31640000000002 711.949 104.21900000000002 711.98 111.19100000000002 710.035 C 118.58200000000002 707.98 125.26200000000001 703.5659999999999 130.80900000000003 697.461 L 146.074 680.645 L 161.34 697.461" stroke-linecap="round" />
</g>
		<g transform="matrix(0.3383469270623278 0 0 -0.3383469270623278 -81.07580382406505 -64.70081265752094)"  >
<path style="stroke: none; stroke-width: 1; stroke-dasharray: none; stroke-linecap: butt; stroke-dashoffset: 0; stroke-linejoin: miter; stroke-miterlimit: 4; fill: rgb(10,39,76); fill-rule: evenodd; opacity: 1;"  paint-order="stroke"  transform=" translate(-90.37890000000002, -591.2261058515022)" d="M 160.293 623.578 C 144.023 628.375 128.461 628.293 114.27700000000002 624.3399999999999 C 105.65200000000002 621.9379999999999 97.63670000000002 618.1329999999999 90.37890000000002 613.1639999999999 C 83.12110000000001 618.1329999999999 75.10550000000002 621.9379999999999 66.48050000000002 624.3399999999999 C 52.29690000000002 628.2929999999999 36.73440000000002 628.3749999999999 20.464800000000018 623.578 L 32.0977 584 C 40.621100000000006 586.516 48.5234 586.547 55.4961 584.602 C 62.8867 582.543 69.5664 578.1329999999999 75.1133 572.0269999999999 L 90.37889999999999 555.2069999999999 L 105.64499999999998 572.0269999999999 C 111.19099999999999 578.1329999999999 117.87099999999998 582.5429999999999 125.26199999999999 584.602 C 132.238 586.547 140.137 586.516 148.66 584 L 160.293 623.578" stroke-linecap="round" />
</g>
</g>
</g>
</svg>